<?xml version="1.0" standalone="no"?><!DOCTYPE svg PUBLIC "-//W3C//DTD SVG 1.1//EN" "http://www.w3.org/Graphics/SVG/1.1/DTD/svg11.dtd"><svg class="icon" height="512" viewBox="0 0 1079 1024" version="1.1" xmlns="http://www.w3.org/2000/svg"><path d="M931.71914 0H148.547865C67.237902 0 1.051422 66.1971 1.051422 147.528304v232.289904a36.757286 36.757286 0 0 0 73.514572 0V147.528304a74.109316 74.109316 0 0 1 73.992491-74.013732h783.160655a74.109316 74.109316 0 0 1 73.992491 74.013732v489.049265a74.088075 74.088075 0 0 1-73.992491 73.992491H147.549545a74.088075 74.088075 0 0 1-73.992491-73.992491v-19.010559l171.349914-173.718268 140.465722 152.45618c0.053102 0.053102 0.074343 0.138066 0.127445 0.201788l1.412516 1.401896c1.550582 1.529341 3.494119 2.272771 5.235869 3.441018a33.762327 33.762327 0 0 0 5.097803 3.356053 32.58346 32.58346 0 0 0 8.177726 1.901056 33.751706 33.751706 0 0 0 4.110104 0.785912 33.156962 33.156962 0 0 0 9.558382-1.49748c0.977079-0.265511 1.986019-0.223029 2.941857-0.584123a33.199444 33.199444 0 0 0 9.176046-5.628825c0.584123-0.477919 1.306312-0.626605 1.858574-1.136385l0.414197-0.382336c0.201788-0.201788 0.488539-0.25489 0.679707-0.456678l216.720363-220.267585 64.18984 63.382688c12.489618 12.330312 33.634881 3.186127 33.220685-14.348192l-3.812732-161.71719a28.526458 28.526458 0 0 0-28.207845-27.857371l-161.759671-1.773611c-17.54494-0.191168-26.412993 21.07092-13.923376 33.401233l61.332946 60.536414L411.265282 522.875314 271.638574 371.33249c-0.339854-0.371715-0.456678-0.860254-0.817773-1.210729l-1.412516-1.401895a32.551598 32.551598 0 0 0-8.634405-5.681927c-0.520401-0.265511-0.934597-0.722189-1.454998-0.955838a32.84897 32.84897 0 0 0-10.822211-2.517041c-0.562882 0-1.062042-0.297372-1.646166-0.318612a33.082619 33.082619 0 0 0-10.174366 1.603684c-0.839013 0.24427-1.709888 0.201788-2.527661 0.50978a33.231305 33.231305 0 0 0-7.848493 4.811052 31.34087 31.34087 0 0 0-3.186127 1.975399l-0.711568 0.658466c-0.053102 0.053102-0.127445 0.074343-0.180547 0.127445L12.5321 581.521293c-0.456678 0.456678-0.594744 1.062042-1.062043 1.550582a36.459914 36.459914 0 0 0-11.470057 26.455475v27.050219c0 81.341824 66.18648 147.507063 147.507063 147.507063h378.416312l0.180548 168.864734-189.404634 0.106205a34.431413 34.431413 0 0 0-34.229626 34.62258v2.049742a34.431413 34.431413 0 0 0 34.622581 34.229625l223.64488-0.127445h0.477919l225.004294-0.127445a34.420793 34.420793 0 0 0 34.250866-34.526997v-2.124085a34.420793 34.420793 0 0 0-34.611961-34.229625l-188.831131 0.106204-0.180547-168.864734h334.872576c81.309963 0 147.507063-66.165239 147.507063-147.507063V147.528304C1079.226203 66.1971 1013.039723 0 931.71914 0z" fill="#2c2c2c" /></svg>