<?xml version="1.0" encoding="iso-8859-1"?>
<!-- Generator: Adobe Illustrator 19.0.0, SVG Export Plug-In . SVG Version: 6.00 Build 0)  -->
<svg version="1.1" id="Capa_1" xmlns="http://www.w3.org/2000/svg" xmlns:xlink="http://www.w3.org/1999/xlink" x="0px" y="0px"
	 viewBox="0 0 398.402 398.402" style="enable-background:new 0 0 398.402 398.402;" xml:space="preserve">
<g>
	<g>
		<path d="M388.418,6.722c-1.536-4.096-3.584-6.656-6.144-6.656c-3.072-0.512-5.12,2.048-5.632,4.608
			c0,1.536-15.872,157.184-178.176,224.768C36.674,161.858,20.802,6.21,20.29,4.674c0-2.56-2.56-5.12-5.632-4.608
			c-2.56,0-5.12,2.56-4.608,5.632c0,1.536,16.384,159.744,179.2,230.912l-45.568,27.648c-0.512,0.512-1.024,0.512-1.024,1.024
			c-0.512,0.512-0.512,1.024-0.512,1.536v0.512v0.512v93.696v0.512v0.512c0,0.512,0.512,1.024,0.512,1.536c0,0,0,0,0.512,0.512
			l0.512,0.512l0.512,0.512c0,0,0,0,0.512,0.512l51.712,31.744h0.512h0.512c0.512,0,1.024,0.512,1.536,0.512
			c0.512,0,1.024,0,1.536-0.512h0.512h0.512l51.712-31.744c0,0,0,0,0.512-0.512l0.512-0.512l0.512-0.512c0,0,0,0,0.512-0.512
			c0.512-0.512,0.512-1.024,0.512-1.536v-0.512v-0.512v-92.672v-0.512v-0.512c0-0.512-0.512-1.024-0.512-1.536
			c-0.512-0.512-0.512-1.024-1.024-1.024l-45.056-27.648C372.546,166.978,388.418,8.258,388.418,6.722z M192.834,245.826v18.944
			l-22.528,13.312l-14.336-9.216L192.834,245.826z M151.874,278.082l13.312,8.704v56.832l-13.312,8.704V278.082z M192.834,384.578
			l-36.864-23.04l14.336-9.216l22.528,13.312V384.578z M197.954,356.418l-23.04-13.312v-56.32l23.04-13.312l23.04,13.312v56.32
			L197.954,356.418z M203.074,384.578v-18.944l22.528-13.312l14.336,9.216L203.074,384.578z M244.546,352.322l-13.312-8.704v-56.832
			l13.312-8.704V352.322z M240.45,268.866l-14.336,9.216l-22.528-13.312v-18.944L240.45,268.866z"/>
	</g>
</g>
<g>
</g>
<g>
</g>
<g>
</g>
<g>
</g>
<g>
</g>
<g>
</g>
<g>
</g>
<g>
</g>
<g>
</g>
<g>
</g>
<g>
</g>
<g>
</g>
<g>
</g>
<g>
</g>
<g>
</g>
</svg>
