<?xml version='1.0' encoding='iso-8859-1'?>
<!DOCTYPE svg PUBLIC '-//W3C//DTD SVG 1.1//EN' 'http://www.w3.org/Graphics/SVG/1.1/DTD/svg11.dtd'>
<svg version="1.1" xmlns="http://www.w3.org/2000/svg" viewBox="0 0 297 297" xmlns:xlink="http://www.w3.org/1999/xlink" enable-background="new 0 0 297 297">
  <g>
    <path d="m168.969,129.301c-7.837,0-15.005,2.977-20.468,7.878-5.464-4.901-12.632-7.878-20.47-7.878-17.087,0-30.989,14.148-30.989,31.541 0,25.477 38.133,51.239 45.776,56.146 1.731,1.11 3.707,1.666 5.683,1.666 1.976,0 3.951-0.556 5.683-1.666 7.644-4.907 45.774-30.673 45.774-56.146 0-17.393-13.902-31.541-30.989-31.541zm-20.468,66.097c-13.888-9.996-30.419-25.468-30.419-34.556 0-5.79 4.463-10.501 9.949-10.501 5.486,0 9.949,4.711 9.949,10.5 0,5.81 4.711,10.52 10.521,10.52 5.809,0 10.52-4.711 10.52-10.52 0-5.789 4.462-10.5 9.947-10.5 5.485,0 9.948,4.711 9.948,10.5 0.001,9.086-16.528,24.559-30.415,34.557z"/>
    <path d="M286.479,9.59h-78.85c-5.811,0-10.52,4.71-10.52,10.52c0,26.876-21.807,48.74-48.61,48.74S99.89,46.985,99.89,20.109   c0-5.81-4.711-10.52-10.521-10.52H10.521C4.71,9.59,0,14.3,0,20.109v98.765c0,5.81,4.71,10.521,10.521,10.521h28.9v147.494   c0,5.81,4.711,10.521,10.521,10.521h197.114c5.811,0,10.521-4.711,10.521-10.521V129.395h28.903c5.81,0,10.521-4.711,10.521-10.521   V20.109C297,14.3,292.289,9.59,286.479,9.59z M275.959,108.354h-28.903c-5.81,0-10.52,4.711-10.52,10.521v147.495H60.462V118.874   c0-5.81-4.71-10.521-10.521-10.521h-28.9V30.631h58.598c5.077,33.504,34.022,59.26,68.86,59.26s63.783-25.756,68.861-59.26h58.599   V108.354z"/>
  </g>
</svg>
