<?xml version="1.0" encoding="iso-8859-1"?>
<!-- Generator: Adobe Illustrator 17.1.0, SVG Export Plug-In . SVG Version: 6.00 Build 0)  -->
<!DOCTYPE svg PUBLIC "-//W3C//DTD SVG 1.1//EN" "http://www.w3.org/Graphics/SVG/1.1/DTD/svg11.dtd">
<svg version="1.1" id="Capa_1" xmlns="http://www.w3.org/2000/svg" xmlns:xlink="http://www.w3.org/1999/xlink" x="0px" y="0px"
	 viewBox="0 0 399.743 399.743" style="enable-background:new 0 0 399.743 399.743;" xml:space="preserve">
<g>
	<path d="M264.823,0h-129.9C80.276,0,35.818,44.458,35.818,99.104v160.345c0,3.038,2.462,5.5,5.5,5.5h46.575l-5.721,54.216
		c0,0.001,0,0.003,0,0.004c-0.009,0.087-0.01,0.177-0.015,0.266c-0.006,0.102-0.015,0.204-0.016,0.305c0,0,0,0.001,0,0.002
		c0,44.113,35.888,80.001,80.001,80.001h74.503c44.112,0,80-35.888,80-80.001c0-0.001,0-0.002,0-0.003
		c0-0.098-0.01-0.198-0.015-0.297c-0.006-0.091-0.006-0.184-0.016-0.274c0-0.001,0-0.002,0-0.004l-5.714-54.149
		c0.237,0.031,0.477,0.053,0.722,0.053h46.802c3.037,0,5.5-2.462,5.5-5.5V99.104C363.925,44.458,319.468,0,264.823,0z M264.823,11
		c1.669,0,3.326,0.051,4.972,0.143c-0.722,37.953-31.8,68.611-69.923,68.611c-38.123,0-69.2-30.658-69.922-68.611
		c1.646-0.092,3.304-0.143,4.973-0.143H264.823z M352.925,254.068h-41.302c-0.647,0-1.266,0.118-1.842,0.323l-14.179-134.373
		c-0.318-3.021-3.031-5.213-6.047-4.892c-3.021,0.319-5.211,3.026-4.893,6.047l20.977,198.804
		c-0.128,37.939-31.025,68.767-68.994,68.767h-74.503c-37.969,0-68.868-30.828-68.995-68.767l20.978-198.804
		c0.319-3.021-1.872-5.728-4.893-6.047c-3.022-0.321-5.728,1.871-6.047,4.892L89.045,254.032c-0.301-0.051-0.608-0.083-0.924-0.083
		H46.818V99.104c0-43.139,31.167-79.133,72.165-86.656c1.406,43.415,37.138,78.306,80.889,78.306
		c43.751,0,79.483-34.891,80.89-78.306c40.998,7.523,72.164,43.517,72.164,86.656V254.068z"/>
	<circle cx="225.184" cy="363.201" r="7.641"/>
	<circle cx="199.394" cy="363.201" r="7.641"/>
	<circle cx="173.606" cy="363.201" r="7.641"/>
	<path d="M241.986,173.542l-22.283-3.237l-9.966-20.194c-1.854-3.754-5.678-6.132-9.864-6.132c-4.188,0-8.011,2.377-9.864,6.132
		l-9.965,20.193l-22.286,3.237c-4.144,0.602-7.586,3.504-8.88,7.486c-1.294,3.982-0.215,8.354,2.783,11.277l16.127,15.72
		l-3.809,22.197c-0.708,4.127,0.989,8.298,4.376,10.759c1.917,1.393,4.187,2.101,6.467,2.101c1.751,0,3.509-0.417,5.118-1.264
		l19.933-10.48l19.931,10.48c1.609,0.847,3.367,1.264,5.118,1.264c2.28,0,4.55-0.708,6.466-2.101
		c3.388-2.46,5.085-6.631,4.377-10.758l-3.806-22.198l16.125-15.721c2.998-2.923,4.077-7.295,2.782-11.276
		C249.572,177.046,246.129,174.144,241.986,173.542z M220.139,204.186l4.783,27.897l-25.05-13.172l-25.052,13.172l4.786-27.897
		l-20.269-19.757l28.01-4.068l12.524-25.38l12.525,25.38l28.007,4.068L220.139,204.186z"/>
</g>
<g>
</g>
<g>
</g>
<g>
</g>
<g>
</g>
<g>
</g>
<g>
</g>
<g>
</g>
<g>
</g>
<g>
</g>
<g>
</g>
<g>
</g>
<g>
</g>
<g>
</g>
<g>
</g>
<g>
</g>
</svg>
